<svg width="128" height="128" viewBox="0 0 128 128" fill="none" xmlns="http://www.w3.org/2000/svg">
  <defs>
    <linearGradient id="bg" x1="18" y1="12" x2="112" y2="118" gradientUnits="userSpaceOnUse">
      <stop stop-color="#FFE7D2" />
      <stop offset="1" stop-color="#F6C08A" />
    </linearGradient>
    <linearGradient id="shirt" x1="36" y1="72" x2="92" y2="118" gradientUnits="userSpaceOnUse">
      <stop stop-color="#F24A3D" />
      <stop offset="1" stop-color="#B50E07" />
    </linearGradient>
  </defs>
  <circle cx="64" cy="64" r="60" fill="url(#bg)" />
  <circle cx="64" cy="52" r="23" fill="#F1C39A" />
  <path d="M38 108C42 88 51 78 64 78C77 78 86 88 90 108H38Z" fill="url(#shirt)" />
  <path d="M45 49C47 34 56 25 68 25C79 25 87 32 91 44C84 39 77 37 69 37C60 37 52 40 45 49Z" fill="#1F1D1B" />
  <path d="M53 56C55 56 56 54 56 52C56 50 55 48 53 48C51 48 50 50 50 52C50 54 51 56 53 56Z" fill="#2E211A" />
  <path d="M75 56C77 56 78 54 78 52C78 50 77 48 75 48C73 48 72 50 72 52C72 54 73 56 75 56Z" fill="#2E211A" />
  <path d="M53 64C57 68 71 68 75 64" stroke="#8A4A2B" stroke-width="3" stroke-linecap="round" />
  <circle cx="64" cy="64" r="60" stroke="rgba(255,255,255,0.8)" stroke-width="2" />
</svg>
